<svg width="802" height="374" viewBox="0 0 802 374" fill="none" xmlns="http://www.w3.org/2000/svg">
	<path d="M802 0H0.100098V373.6H802V0Z" fill="#FDBA30" />
	<path
		d="M407.8 138.9V62.3999H432.1V137.4C432.1 145 433.7 147.2 438 147.2C442.6 147.2 443.8 145.1 443.8 137.4V62.3999H468.1V138.9C468.1 161.3 456.8 170.8 438 170.8C418.4 170.7 407.8 161.3 407.8 138.9Z"
		fill="black" />
	<path
		d="M504.2 169.1H480.3V62.3999H510.4C532 62.3999 540.6 70.9999 540.6 89.0999V107.9C540.6 125.8 532 136.4 510.4 136.4H504.2V169.1V169.1ZM504.2 115.1H509.1C513.8 115.1 516.2 112.4 516.2 107.2V90.0999C516.2 85.0999 514 82.6999 509.2 82.6999H504.2V115.1V115.1Z"
		fill="black" />
	<path
		d="M551.2 169.1V62.3999H573L591.8 114.6L593.4 120.5L593 110.9V62.3999H615V169.1H593.7L574.4 116.9L572.6 110.8L573.2 121.3V169H551.2V169.1Z"
		fill="black" />
	<path
		d="M277.3 62.4001V310.8H241V128.8L240 129.7C224 144.8 206.2 158.1 187.2 169.3V128.2C197.2 121.2 206.7 113.5 215.6 105.2C229.4 92.3 241.9 77.9 252.7 62.3H277.3V62.4001Z"
		fill="black" />
	<path
		d="M380.9 128.3V169.4C361.8 158.2 344.1 144.8 328.1 129.8L327.1 128.9V310.9H290.8V62.3999H315.5C326.3 77.9999 338.7 92.3999 352.6 105.3C361.4 113.6 370.9 121.3 380.9 128.3Z"
		fill="black" />
	<path
		d="M412.1 218.4V198.1H417.3V218.1C417.3 220.9 418 221.9 419.9 221.9C421.8 221.9 422.5 220.9 422.5 218.1V198.1H427.6V218.4C427.6 224.3 424.9 226.9 419.9 226.9C414.7 226.9 412.1 224.3 412.1 218.4Z"
		fill="black" />
	<path
		d="M431.5 226.4V198.1H436L442.5 214.1L443.5 217.3L443.2 213.5V198.2H447.8V226.5H443.4L436.7 210.4L435.7 207L436 211.2V226.5H431.5V226.4Z"
		fill="black" />
	<path d="M451.2 221.6H454.5V202.8H451.2V198.1H462.7V202.8H459.5V221.6H462.7V226.4H451.2V221.6Z" fill="black" />
	<path d="M464.8 198.1H470L473.4 215L473.7 219.2L474 215L477.3 198.1H482.5L476.3 226.4H471.2L464.8 198.1Z"
		fill="black" />
	<path d="M485 226.4V198.1H498.2V202.7H490V209.7H497.2V214.4H490V221.6H498.4V226.4H485V226.4Z" fill="black" />
	<path
		d="M506.6 226.4H501.7V198.1H509.3C514.6 198.1 516.8 200.2 516.8 204.9V208.3C516.8 211.1 515.8 212.5 513.8 213.3C515.9 214 516.5 215.4 516.5 218.2V224.6C516.5 225.4 516.8 226 517.3 226.5H512C511.6 226.2 511.5 225.5 511.5 224.6V218.5C511.5 216.5 510.9 215.7 508.8 215.7H506.7V226.4H506.6ZM506.6 211.1H509C511 211.1 511.8 210.2 511.8 208.3V205.1C511.8 203.2 511 202.4 509 202.4H506.6V211.1Z"
		fill="black" />
	<path
		d="M519.7 219.5V215.7H525V219.4C525 221.2 525.6 222.3 527.7 222.3C529.6 222.3 530.2 221.2 530.2 219.6V218.1C530.2 217.3 530 216.7 529.6 216.1C528.8 215 527.3 214.2 525.7 213.5C524.8 213 523.9 212.5 523.1 211.9C521.4 210.7 520.1 208.9 520.1 206V204.8C520.1 200.4 522.5 197.8 527.6 197.8C532.7 197.8 535 200.3 535 204.4V207.5H530V204.7C530 202.8 529.3 202 527.6 202C525.9 202 525.2 203.1 525.2 204.8V205.6C525.2 206.4 525.4 206.9 525.8 207.4C526.6 208.4 528.1 209.1 529.6 209.9C530.5 210.4 531.4 210.9 532.3 211.5C534 212.7 535.3 214.5 535.3 217.5V219.7C535.3 224.2 532.7 226.9 527.6 226.9C521.7 226.9 519.7 224.3 519.7 219.5Z"
		fill="black" />
	<path d="M537.7 221.6H541V202.8H537.7V198.1H549.2V202.8H546V221.6H549.2V226.4H537.7V221.6Z" fill="black" />
	<path
		d="M559.8 198.1C561.5 198.1 562.9 198.4 564.2 199C566.7 200.1 568.3 202.5 568.3 206.6V218C568.3 220 567.9 221.6 567.2 222.8C565.8 225.3 563.1 226.4 559.8 226.4H552.5V198.1H559.8ZM557.6 221.9H559.6C561.8 221.9 563 220.6 563 217.5V206.8C563 203.7 561.7 202.4 559.5 202.4H557.6V221.9Z"
		fill="black" />
	<path
		d="M575.8 222.2L575 226.4H569.9L576.2 198.1H581.3L587.7 226.4H582.6L581.8 222.2H575.8ZM580.9 217.8L579 208.4L578.7 204.4L578.4 208.4L576.6 217.8H580.9Z"
		fill="black" />
	<path
		d="M597.5 198.1C599.2 198.1 600.6 198.4 601.9 199C604.4 200.1 606 202.5 606 206.6V218C606 220 605.6 221.6 604.9 222.8C603.5 225.3 600.8 226.4 597.5 226.4H590.2V198.1H597.5ZM595.3 221.9H597.3C599.5 221.9 600.7 220.6 600.7 217.5V206.8C600.7 203.7 599.4 202.4 597.2 202.4H595.3V221.9Z"
		fill="black" />
	<path
		d="M417.3 268.6H412.3V240.3H419.8C425.3 240.3 427.7 242.4 427.7 247.5V252.3C427.7 257 425.4 259.8 419.9 259.8H417.4V268.6H417.3ZM417.3 255.2H419.6C421.6 255.2 422.6 254.1 422.6 252.1V247.6C422.6 245.4 421.7 244.6 419.6 244.6H417.3V255.2Z"
		fill="black" />
	<path
		d="M435.8 268.6H430.9V240.3H438.5C443.8 240.3 446 242.4 446 247.1V250.5C446 253.3 445 254.7 443 255.5C445.1 256.2 445.7 257.6 445.7 260.4V266.8C445.7 267.6 446 268.2 446.5 268.7H441.1C440.7 268.4 440.6 267.7 440.6 266.8V260.7C440.6 258.7 440 257.9 437.9 257.9H435.8V268.6V268.6ZM435.8 253.2H438.2C440.2 253.2 441 252.3 441 250.4V247.2C441 245.3 440.2 244.5 438.2 244.5H435.8V253.2Z"
		fill="black" />
	<path d="M448.8 263.8H452.1V245H448.8V240.3H460.3V245H457V263.8H460.2V268.6H448.7V263.8H448.8Z" fill="black" />
	<path d="M462.4 240.2H467.6L471 257.1L471.3 261.3L471.6 257.1L474.9 240.2H480.1L473.9 268.5H468.8L462.4 240.2Z"
		fill="black" />
	<path
		d="M484.6 264.4L483.8 268.6H478.7L485 240.3H490.1L496.5 268.6H491.4L490.6 264.4H484.6ZM489.8 259.9L487.9 250.5L487.6 246.5L487.3 250.5L485.5 259.9H489.8Z"
		fill="black" />
	<path
		d="M506.4 240.2C508.1 240.2 509.5 240.5 510.8 241.1C513.3 242.2 514.9 244.6 514.9 248.7V260.2C514.9 262.2 514.5 263.8 513.8 265C512.4 267.5 509.7 268.6 506.4 268.6H499.1V240.3H506.4V240.2ZM504.2 264.1H506.2C508.4 264.1 509.6 262.8 509.6 259.7V249C509.6 245.9 508.3 244.6 506.1 244.6H504.2V264.1Z"
		fill="black" />
	<path
		d="M522.3 264.4L521.5 268.6H516.4L522.7 240.3H527.8L534.2 268.6H529.1L528.3 264.4H522.3ZM527.5 259.9L525.6 250.5L525.3 246.5L525 250.5L523.2 259.9H527.5Z"
		fill="black" />
	<path
		d="M419.6 282.4C421.3 282.4 422.7 282.7 424 283.3C426.5 284.4 428.1 286.8 428.1 290.9V302.4C428.1 304.4 427.7 306 427 307.2C425.6 309.7 422.9 310.8 419.6 310.8H412.3V282.5H419.6V282.4ZM417.4 306.2H419.4C421.6 306.2 422.8 304.9 422.8 301.8V291.1C422.8 288 421.5 286.7 419.3 286.7H417.4V306.2Z"
		fill="black" />
	<path d="M431.8 310.7V282.4H445V287H436.8V294H444V298.7H436.8V305.9H445.2V310.7H431.8Z" fill="black" />
	<path d="M448.5 282.4H453.7V305.6H461.3V310.7H448.5V282.4Z" fill="black" />
	<path
		d="M473 310.7V282.4H477.5L484 298.4L485 301.6L484.7 297.8V282.5H489.3V310.8H484.9L478.2 294.7L477.2 291.3L477.5 295.5V310.8H473V310.7Z"
		fill="black" />
	<path
		d="M493.1 302.6V290.7C493.1 284.9 496.3 282.1 501.3 282.1C506.3 282.1 509.5 284.9 509.5 290.7V302.6C509.5 308.5 506.3 311.2 501.3 311.2C496.1 311.2 493.1 308.5 493.1 302.6ZM504.1 302.2V290.9C504.1 287.9 503.3 286.6 501.2 286.6C499.1 286.6 498.3 288 498.3 290.9V302.2C498.3 305.1 499.1 306.5 501.2 306.5C503.3 306.4 504.1 305.1 504.1 302.2Z"
		fill="black" />
	<path
		d="M518 310.7H513.1V282.4H520.7C526 282.4 528.2 284.5 528.2 289.2V292.6C528.2 295.4 527.2 296.8 525.2 297.6C527.3 298.3 527.9 299.7 527.9 302.5V308.9C527.9 309.7 528.2 310.3 528.7 310.8H523.3C522.9 310.5 522.8 309.8 522.8 308.9V302.8C522.8 300.8 522.2 300 520.1 300H518V310.7ZM518 295.4H520.4C522.4 295.4 523.2 294.5 523.2 292.6V289.4C523.2 287.5 522.4 286.7 520.4 286.7H518V295.4Z"
		fill="black" />
	<path d="M540.2 310.7H535.1V287H530.4V282.3H544.9V287H540.2V310.7V310.7Z" fill="black" />
	<path d="M547.8 310.7V282.4H561V287H552.8V294H560V298.7H552.8V305.9H561.2V310.7H547.8Z" fill="black" />
</svg>